<?xml version="1.0" encoding="UTF-8"?>
<svg xmlns="http://www.w3.org/2000/svg" viewBox="0 0 2091.58 406.13">
    <path style="fill:#E4002B;stroke-width:5px;stroke:#FFF" d="M1983.27,3.52h-74.84l-69.17,399.15h67.75l9.92-73.59h57.83l9.92,73.59h67.75L1983.27,3.52ZM1966.55,269.92h-41.63l16.77-120.18,4.17-38.17,4.23,38.17,16.46,120.18ZM1823.98,35.9l-64.15,334.54h-71.22l-64.15-334.54h65.33l29.17,182.44,5.26,46.13,5.26-46.13,29.17-182.44h65.33ZM1484.78,29.63c-38.05,0-83.85,27.81-83.85,87.98v171.12c0,60.17,45.74,87.98,83.85,87.98s83.87-27.81,83.87-87.98V117.62c0-60.17-45.75-87.98-83.87-87.98ZM1502.9,288.73c0,15.57-5.63,28.04-18.12,28.04s-18.11-12.47-18.11-28.04V117.62c0-18.98,7.68-28.04,18.11-28.04s18.12,9.05,18.12,28.04v171.12ZM1329.68,35.62v334.54h-48.43l-59.18-136.8-19.38-50.52v187.33h-59.51V35.62h48.89l59.12,137.17,19.44,51.54.02-188.71h59.03ZM930.83,35.93h-73.23l-64.23,334.5h62.01l8.75-53.96h60.18l8.75,53.96h62.01l-64.23-334.5ZM872.6,264.23l18.79-112.56,2.83-21.97,2.83,21.97,18.79,112.56h-43.23ZM752.61,35.58l-84.13,272.12h74.27v62.42h-162.04l87.98-273.58h-75.51v-60.96h159.44ZM535.22,35.58l-84.13,272.12h74.27v62.42h-162.04l87.98-273.58h-75.51v-60.96h159.44ZM306.1,35.58v334.54h-67.89V35.58h67.89ZM103.3,3.37H3.47v399.11h66.44v-153.8h33.39c37.78,0,67.74-19.54,70.25-81.12v-83.06C173.54,23.37,140.71,3.37,103.3,3.37ZM109.53,170.39c0,17.04-8.11,26.53-19.74,26.53h-19.31V60.17h19.31c13.02,0,19.74,10.39,19.74,27.09v83.13Z"/>
</svg>